# xmcd
#
# Track frame offsets: 
#        150
#        10398
#        26309
#        45064
#        57305
#        63764
#        77746
#        88379
#        95211
#        108771
#        118997
#        146009
#        159778
#        177839
#        192836
#        207975
#        215596
#        222116
#        236447
#        255571
#        265112
#        277924
#
# Disc length: 3923 seconds
#
# Revision: 0
# Processed by: cddbd v1.5.2PL0 Copyright (c) Steve Scherf et al.
# Submitted via: ExactAudioCopyFreeDBPlugin 1.0
#
DISCID=2d0f5116
DTITLE=龚丽娜 - 走西口
DYEAR=1900
DGENRE=Country
TTITLE0=桃花红 杏花白--山西民歌
TTITLE1=走西口--陕北民歌
TTITLE2=五更月--甘肃名额
TTITLE3=茉莉花--竞速名额
TTITLE4=螃蟹歌--贵州儿歌
TTITLE5=盘歌--贵州儿歌
TTITLE6=细细辣子--贵州儿歌
TTITLE7=白鸽赶场--贵州儿歌
TTITLE8=杨柳青--山西儿歌
TTITLE9=丢丢铜--福建民歌
TTITLE10=茉莉花--河北民歌
TTITLE11=绣荷包--山西民歌
TTITLE12=放风筝--河北民歌
TTITLE13=好花红--贵州儿歌
TTITLE14=小表妹
TTITLE15=上去高山望平川--甘肃民歌
TTITLE16=尕老汉--甘肃民歌
TTITLE17=黄河船夫曲--陕北民歌
TTITLE18=五哥放羊--陕北民歌
TTITLE19=包楞调--山东民歌
TTITLE20=凤阳花鼓--安徽名额
TTITLE21=花非花
EXTD=
EXTT0=
EXTT1=
EXTT2=
EXTT3=
EXTT4=
EXTT5=
EXTT6=
EXTT7=
EXTT8=
EXTT9=
EXTT10=
EXTT11=
EXTT12=
EXTT13=
EXTT14=
EXTT15=
EXTT16=
EXTT17=
EXTT18=
EXTT19=
EXTT20=
EXTT21=
PLAYORDER=
